<svg xmlns="http://www.w3.org/2000/svg" version="1.1" width="400" height="400"><line x1="100" y1="300" x2="100" y2="275" stroke="rgb(0.000000, 0.000000, 255.000000)" strokeWidth="1" fill="none"></line><line x1="100" y1="275" x2="125" y2="275" stroke="rgb(0.000000, 0.000000, 255.000000)" strokeWidth="1" fill="none"></line><line x1="125" y1="275" x2="125" y2="300" stroke="rgb(0.000000, 0.000000, 255.000000)" strokeWidth="1" fill="none"></line><line x1="125" y1="300" x2="150" y2="300" stroke="rgb(0.000000, 0.000000, 255.000000)" strokeWidth="1" fill="none"></line><line x1="150" y1="300" x2="175" y2="300" stroke="rgb(0.000000, 0.000000, 255.000000)" strokeWidth="1" fill="none"></line><line x1="175" y1="300" x2="175" y2="275" stroke="rgb(0.000000, 0.000000, 255.000000)" strokeWidth="1" fill="none"></line><line x1="175" y1="275" x2="150" y2="275" stroke="rgb(0.000000, 0.000000, 255.000000)" strokeWidth="1" fill="none"></line><line x1="150" y1="275" x2="150" y2="250" stroke="rgb(0.000000, 0.000000, 255.000000)" strokeWidth="1" fill="none"></line><line x1="150" y1="250" x2="175" y2="250" stroke="rgb(0.000000, 0.000000, 255.000000)" strokeWidth="1" fill="none"></line><line x1="175" y1="250" x2="175" y2="225" stroke="rgb(0.000000, 0.000000, 255.000000)" strokeWidth="1" fill="none"></line><line x1="175" y1="225" x2="150" y2="225" stroke="rgb(0.000000, 0.000000, 255.000000)" strokeWidth="1" fill="none"></line><line x1="150" y1="225" x2="125" y2="225" stroke="rgb(0.000000, 0.000000, 255.000000)" strokeWidth="1" fill="none"></line><line x1="125" y1="225" x2="125" y2="250" stroke="rgb(0.000000, 0.000000, 255.000000)" strokeWidth="1" fill="none"></line><line x1="125" y1="250" x2="100" y2="250" stroke="rgb(0.000000, 0.000000, 255.000000)" strokeWidth="1" fill="none"></line><line x1="100" y1="250" x2="100" y2="225" stroke="rgb(0.000000, 0.000000, 255.000000)" strokeWidth="1" fill="none"></line><line x1="100" y1="225" x2="100" y2="200" stroke="rgb(0.000000, 0.000000, 255.000000)" strokeWidth="1" fill="none"></line><line x1="100" y1="200" x2="125" y2="200" stroke="rgb(0.000000, 0.000000, 255.000000)" strokeWidth="1" fill="none"></line><line x1="125" y1="200" x2="125" y2="175" stroke="rgb(0.000000, 0.000000, 255.000000)" strokeWidth="1" fill="none"></line><line x1="125" y1="175" x2="100" y2="175" stroke="rgb(0.000000, 0.000000, 255.000000)" strokeWidth="1" fill="none"></line><line x1="100" y1="175" x2="100" y2="150" stroke="rgb(0.000000, 0.000000, 255.000000)" strokeWidth="1" fill="none"></line><line x1="100" y1="150" x2="100" y2="125" stroke="rgb(0.000000, 0.000000, 255.000000)" strokeWidth="1" fill="none"></line><line x1="100" y1="125" x2="125" y2="125" stroke="rgb(0.000000, 0.000000, 255.000000)" strokeWidth="1" fill="none"></line><line x1="125" y1="125" x2="125" y2="150" stroke="rgb(0.000000, 0.000000, 255.000000)" strokeWidth="1" fill="none"></line><line x1="125" y1="150" x2="150" y2="150" stroke="rgb(0.000000, 0.000000, 255.000000)" strokeWidth="1" fill="none"></line><line x1="150" y1="150" x2="150" y2="125" stroke="rgb(0.000000, 0.000000, 255.000000)" strokeWidth="1" fill="none"></line><line x1="150" y1="125" x2="175" y2="125" stroke="rgb(0.000000, 0.000000, 255.000000)" strokeWidth="1" fill="none"></line><line x1="175" y1="125" x2="175" y2="150" stroke="rgb(0.000000, 0.000000, 255.000000)" strokeWidth="1" fill="none"></line><line x1="175" y1="150" x2="175" y2="175" stroke="rgb(0.000000, 0.000000, 255.000000)" strokeWidth="1" fill="none"></line><line x1="175" y1="175" x2="150" y2="175" stroke="rgb(0.000000, 0.000000, 255.000000)" strokeWidth="1" fill="none"></line><line x1="150" y1="175" x2="150" y2="200" stroke="rgb(0.000000, 0.000000, 255.000000)" strokeWidth="1" fill="none"></line><line x1="150" y1="200" x2="175" y2="200" stroke="rgb(0.000000, 0.000000, 255.000000)" strokeWidth="1" fill="none"></line><line x1="175" y1="200" x2="200" y2="200" stroke="rgb(0.000000, 0.000000, 255.000000)" strokeWidth="1" fill="none"></line><line x1="200" y1="200" x2="225" y2="200" stroke="rgb(0.000000, 0.000000, 255.000000)" strokeWidth="1" fill="none"></line><line x1="225" y1="200" x2="225" y2="175" stroke="rgb(0.000000, 0.000000, 255.000000)" strokeWidth="1" fill="none"></line><line x1="225" y1="175" x2="200" y2="175" stroke="rgb(0.000000, 0.000000, 255.000000)" strokeWidth="1" fill="none"></line><line x1="200" y1="175" x2="200" y2="150" stroke="rgb(0.000000, 0.000000, 255.000000)" strokeWidth="1" fill="none"></line><line x1="200" y1="150" x2="200" y2="125" stroke="rgb(0.000000, 0.000000, 255.000000)" strokeWidth="1" fill="none"></line><line x1="200" y1="125" x2="225" y2="125" stroke="rgb(0.000000, 0.000000, 255.000000)" strokeWidth="1" fill="none"></line><line x1="225" y1="125" x2="225" y2="150" stroke="rgb(0.000000, 0.000000, 255.000000)" strokeWidth="1" fill="none"></line><line x1="225" y1="150" x2="250" y2="150" stroke="rgb(0.000000, 0.000000, 255.000000)" strokeWidth="1" fill="none"></line><line x1="250" y1="150" x2="250" y2="125" stroke="rgb(0.000000, 0.000000, 255.000000)" strokeWidth="1" fill="none"></line><line x1="250" y1="125" x2="275" y2="125" stroke="rgb(0.000000, 0.000000, 255.000000)" strokeWidth="1" fill="none"></line><line x1="275" y1="125" x2="275" y2="150" stroke="rgb(0.000000, 0.000000, 255.000000)" strokeWidth="1" fill="none"></line><line x1="275" y1="150" x2="275" y2="175" stroke="rgb(0.000000, 0.000000, 255.000000)" strokeWidth="1" fill="none"></line><line x1="275" y1="175" x2="250" y2="175" stroke="rgb(0.000000, 0.000000, 255.000000)" strokeWidth="1" fill="none"></line><line x1="250" y1="175" x2="250" y2="200" stroke="rgb(0.000000, 0.000000, 255.000000)" strokeWidth="1" fill="none"></line><line x1="250" y1="200" x2="275" y2="200" stroke="rgb(0.000000, 0.000000, 255.000000)" strokeWidth="1" fill="none"></line><line x1="275" y1="200" x2="275" y2="225" stroke="rgb(0.000000, 0.000000, 255.000000)" strokeWidth="1" fill="none"></line><line x1="275" y1="225" x2="275" y2="250" stroke="rgb(0.000000, 0.000000, 255.000000)" strokeWidth="1" fill="none"></line><line x1="275" y1="250" x2="250" y2="250" stroke="rgb(0.000000, 0.000000, 255.000000)" strokeWidth="1" fill="none"></line><line x1="250" y1="250" x2="250" y2="225" stroke="rgb(0.000000, 0.000000, 255.000000)" strokeWidth="1" fill="none"></line><line x1="250" y1="225" x2="225" y2="225" stroke="rgb(0.000000, 0.000000, 255.000000)" strokeWidth="1" fill="none"></line><line x1="225" y1="225" x2="200" y2="225" stroke="rgb(0.000000, 0.000000, 255.000000)" strokeWidth="1" fill="none"></line><line x1="200" y1="225" x2="200" y2="250" stroke="rgb(0.000000, 0.000000, 255.000000)" strokeWidth="1" fill="none"></line><line x1="200" y1="250" x2="225" y2="250" stroke="rgb(0.000000, 0.000000, 255.000000)" strokeWidth="1" fill="none"></line><line x1="225" y1="250" x2="225" y2="275" stroke="rgb(0.000000, 0.000000, 255.000000)" strokeWidth="1" fill="none"></line><line x1="225" y1="275" x2="200" y2="275" stroke="rgb(0.000000, 0.000000, 255.000000)" strokeWidth="1" fill="none"></line><line x1="200" y1="275" x2="200" y2="300" stroke="rgb(0.000000, 0.000000, 255.000000)" strokeWidth="1" fill="none"></line><line x1="200" y1="300" x2="225" y2="300" stroke="rgb(0.000000, 0.000000, 255.000000)" strokeWidth="1" fill="none"></line><line x1="225" y1="300" x2="250" y2="300" stroke="rgb(0.000000, 0.000000, 255.000000)" strokeWidth="1" fill="none"></line><line x1="250" y1="300" x2="250" y2="275" stroke="rgb(0.000000, 0.000000, 255.000000)" strokeWidth="1" fill="none"></line><line x1="250" y1="275" x2="275" y2="275" stroke="rgb(0.000000, 0.000000, 255.000000)" strokeWidth="1" fill="none"></line><line x1="275" y1="275" x2="275" y2="300" stroke="rgb(0.000000, 0.000000, 255.000000)" strokeWidth="1" fill="none"></line></svg>