<?xml version="1.0" standalone="no"?>
<!DOCTYPE svg PUBLIC "-//W3C//DTD SVG 1.1//EN" "http://www.w3.org/Graphics/SVG/1.1/DTD/svg11.dtd">
<svg version="1.1" xmlns="http://www.w3.org/2000/svg" viewBox="0 0 450 445" width="900" height="890"><!-- svg-source:excalidraw --><metadata></metadata><defs><style class="style-fonts">
      </style></defs><g stroke-linecap="round" transform="translate(10 10) rotate(0 215 212.5)"><path d="M0 0 C161.55 0, 323.11 0, 430 0 M0 0 C95.42 0, 190.83 0, 430 0 M430 0 C430 95.43, 430 190.86, 430 425 M430 0 C430 87.06, 430 174.12, 430 425 M430 425 C270.46 425, 110.92 425, 0 425 M430 425 C299.12 425, 168.24 425, 0 425 M0 425 C0 267.4, 0 109.79, 0 0 M0 425 C0 313.26, 0 201.51, 0 0" stroke="#1e1e1e" stroke-width="4" fill="none"></path></g><g transform="translate(145.69727236091137 334.1133834583211) rotate(9.50003072179705 21.002880184331786 -8.941820276497708)" stroke="none"><path fill="#1e1e1e" d="M 0,-2.64 Q 0,-2.64 2.39,-2.68 4.78,-2.72 8.95,-2.78 13.13,-2.84 16.61,-3.43 20.09,-4.02 22.57,-4.64 25.05,-5.26 27.15,-5.87 29.25,-6.49 32.56,-7.97 35.87,-9.45 37.29,-11.09 38.71,-12.74 36.46,-13.13 34.22,-13.52 31.38,-13.79 28.54,-14.07 24.36,-14.25 20.18,-14.43 19.87,-14.72 19.56,-15.01 19.35,-15.38 19.15,-15.75 19.07,-16.17 19.00,-16.59 19.06,-17.01 19.12,-17.43 19.31,-17.81 19.51,-18.19 19.81,-18.48 20.11,-18.78 20.50,-18.97 20.88,-19.15 21.30,-19.20 21.72,-19.26 22.14,-19.17 22.55,-19.09 22.92,-18.87 23.29,-18.66 23.57,-18.34 23.85,-18.02 24.01,-17.63 24.18,-17.24 24.21,-16.81 24.24,-16.39 24.13,-15.98 24.02,-15.57 23.79,-15.21 23.56,-14.86 23.22,-14.59 22.89,-14.33 22.49,-14.19 22.09,-14.05 21.66,-14.04 21.24,-14.03 20.83,-14.16 20.43,-14.29 20.09,-14.54 19.74,-14.79 19.50,-15.14 19.26,-15.49 19.14,-15.90 19.02,-16.30 19.03,-16.73 19.05,-17.15 19.20,-17.55 19.35,-17.95 19.62,-18.28 19.89,-18.61 20.25,-18.83 20.61,-19.06 21.02,-19.15 21.44,-19.25 21.86,-19.21 22.28,-19.17 22.67,-19.00 23.06,-18.83 23.06,-18.83 23.06,-18.83 23.74,-19.91 24.43,-20.99 26.62,-21.29 28.82,-21.60 31.55,-21.27 34.29,-20.94 36.53,-20.28 38.77,-19.61 40.90,-18.21 43.03,-16.80 44.00,-14.46 44.97,-12.12 44.06,-10.11 43.16,-8.10 40.97,-6.19 38.79,-4.27 34.84,-2.54 30.89,-0.81 28.67,-0.17 26.45,0.45 21.93,1.42 17.41,2.38 15.27,2.61 13.14,2.84 8.96,2.78 4.78,2.72 2.39,2.68 0,2.64 -0.31,2.60 -0.63,2.56 -0.93,2.45 -1.22,2.34 -1.49,2.15 -1.75,1.97 -1.96,1.74 -2.17,1.50 -2.32,1.21 -2.47,0.93 -2.54,0.62 -2.62,0.31 -2.62,-0.00 -2.62,-0.31 -2.54,-0.62 -2.47,-0.93 -2.32,-1.21 -2.17,-1.50 -1.96,-1.74 -1.75,-1.97 -1.49,-2.15 -1.22,-2.34 -0.93,-2.45 -0.63,-2.56 -0.31,-2.60 0.00,-2.64 0.00,-2.64 L 0,-2.64 Z"></path></g><g transform="translate(168.69516765495132 314.6431350927046) rotate(9.50003072179705 4.990783410138249 -7.278225806451587)" stroke="none"><path fill="#1e1e1e" d="M -0.18,2.64 Q -0.18,2.64 -1.89,2.74 -3.59,2.85 -6.09,0.68 -8.59,-1.47 -8.10,-4.52 -7.61,-7.56 -5.59,-10.17 -3.58,-12.77 0.67,-14.69 4.93,-16.61 7.51,-16.98 10.09,-17.35 13.02,-17.46 15.95,-17.58 16.38,-17.55 16.80,-17.53 17.20,-17.37 17.59,-17.21 17.91,-16.93 18.23,-16.65 18.45,-16.28 18.66,-15.92 18.75,-15.50 18.84,-15.09 18.79,-14.66 18.74,-14.24 18.56,-13.86 18.38,-13.47 18.08,-13.17 17.79,-12.86 17.41,-12.67 17.03,-12.47 16.61,-12.41 16.19,-12.34 15.77,-12.41 15.35,-12.49 14.98,-12.69 14.61,-12.89 14.32,-13.20 14.03,-13.51 13.85,-13.90 13.68,-14.29 13.64,-14.71 13.59,-15.13 13.69,-15.55 13.78,-15.96 14.01,-16.32 14.23,-16.69 14.56,-16.96 14.88,-17.23 15.28,-17.38 15.67,-17.54 16.10,-17.56 16.52,-17.58 16.93,-17.46 17.34,-17.34 17.69,-17.10 18.04,-16.86 18.29,-16.52 18.55,-16.18 18.68,-15.77 18.81,-15.37 18.81,-14.94 18.80,-14.52 18.66,-14.12 18.52,-13.72 18.26,-13.38 18.00,-13.04 17.65,-12.81 17.30,-12.57 16.89,-12.46 16.47,-12.35 16.48,-12.35 16.48,-12.35 13.75,-11.91 11.02,-11.46 6.93,-10.67 2.83,-9.87 1.09,-8.43 -0.65,-6.98 -1.87,-5.15 -3.09,-3.32 -1.45,-2.98 0.18,-2.64 0.50,-2.58 0.81,-2.52 1.10,-2.38 1.39,-2.25 1.64,-2.05 1.89,-1.85 2.08,-1.59 2.28,-1.34 2.41,-1.05 2.53,-0.76 2.59,-0.44 2.64,-0.13 2.62,0.18 2.60,0.50 2.50,0.81 2.40,1.11 2.23,1.38 2.06,1.65 1.83,1.88 1.61,2.10 1.33,2.26 1.06,2.42 0.75,2.52 0.44,2.61 0.12,2.62 -0.18,2.64 -0.18,2.64 L -0.18,2.64 Z"></path></g><g transform="translate(178.98699495340986 304.6420340542471) rotate(9.50003072179705 17.67569124423966 -2.287442396313395)" stroke="none"><path fill="#1e1e1e" d="M -0.12,-2.64 Q -0.12,-2.64 2.37,-2.88 4.88,-3.12 7.15,-3.41 9.43,-3.70 11.58,-4.06 13.73,-4.41 15.97,-4.80 18.21,-5.19 20.55,-5.49 22.89,-5.78 25.00,-6.11 27.11,-6.44 29.34,-6.73 31.58,-7.03 33.24,-7.30 34.89,-7.57 35.32,-7.58 35.74,-7.58 36.15,-7.45 36.55,-7.32 36.89,-7.07 37.23,-6.81 37.48,-6.46 37.72,-6.12 37.84,-5.71 37.95,-5.30 37.94,-4.87 37.92,-4.45 37.77,-4.05 37.61,-3.66 37.34,-3.33 37.07,-3.00 36.71,-2.78 36.35,-2.56 35.93,-2.46 35.52,-2.36 35.10,-2.41 34.67,-2.45 34.28,-2.62 33.90,-2.80 33.59,-3.08 33.27,-3.37 33.07,-3.75 32.87,-4.12 32.79,-4.54 32.72,-4.96 32.78,-5.38 32.85,-5.80 33.04,-6.17 33.24,-6.55 33.54,-6.85 33.85,-7.14 34.23,-7.33 34.62,-7.51 35.04,-7.56 35.46,-7.61 35.88,-7.52 36.29,-7.44 36.66,-7.22 37.02,-7.01 37.30,-6.69 37.58,-6.37 37.74,-5.97 37.91,-5.58 37.93,-5.16 37.96,-4.73 37.85,-4.32 37.74,-3.91 37.51,-3.56 37.27,-3.20 36.94,-2.94 36.60,-2.68 36.20,-2.54 35.80,-2.40 35.80,-2.40 35.80,-2.40 34.15,-2.09 32.50,-1.78 30.28,-1.29 28.05,-0.81 25.83,-0.41 23.62,-0.01 21.41,0.25 19.21,0.53 16.94,0.93 14.67,1.32 12.40,1.69 10.13,2.06 7.64,2.35 5.15,2.64 2.64,2.64 0.12,2.64 -0.19,2.61 -0.50,2.59 -0.81,2.49 -1.11,2.39 -1.38,2.22 -1.65,2.05 -1.87,1.83 -2.10,1.60 -2.26,1.32 -2.42,1.05 -2.51,0.74 -2.60,0.44 -2.62,0.12 -2.63,-0.19 -2.57,-0.50 -2.51,-0.81 -2.37,-1.10 -2.24,-1.39 -2.04,-1.64 -1.84,-1.89 -1.59,-2.08 -1.33,-2.27 -1.04,-2.40 -0.75,-2.53 -0.43,-2.58 -0.12,-2.64 -0.12,-2.64 L -0.12,-2.64 Z"></path></g><g transform="translate(216.91392704790303 311.9953394745005) rotate(9.50003072179705 54.06682027649771 -3.951036866359459)" stroke="none"><path fill="#1e1e1e" d="M -1.28,-2.34 Q -1.28,-2.34 -0.11,-3.34 1.05,-4.35 3.36,-5.07 5.66,-5.79 8.48,-6.20 11.29,-6.61 13.69,-6.71 16.08,-6.81 18.63,-6.68 21.18,-6.55 24.12,-6.60 27.06,-6.65 29.39,-6.82 31.72,-7.00 33.85,-7.04 35.98,-7.08 38.92,-7.17 41.86,-7.25 45.16,-7.10 48.46,-6.94 50.81,-6.37 53.17,-5.80 55.90,-5.16 58.63,-4.52 61.19,-3.96 63.75,-3.40 66.70,-2.64 69.65,-1.89 72.45,-0.84 75.24,0.21 77.45,1.06 79.66,1.91 81.97,2.91 84.28,3.90 86.24,4.91 88.20,5.91 87.50,8.10 86.80,10.29 85.24,8.61 83.68,6.93 81.72,5.51 79.77,4.09 78.74,0.39 77.71,-3.29 79.85,-4.58 81.99,-5.87 85.44,-5.51 88.88,-5.15 92.23,-4.38 95.57,-3.61 97.76,-3.43 99.95,-3.25 97.69,-2.81 95.43,-2.37 93.48,-4.15 91.54,-5.93 91.52,-5.98 91.50,-6.03 91.13,-6.33 90.75,-6.63 90.45,-7.01 90.16,-7.39 89.97,-7.83 89.77,-8.28 89.69,-8.75 89.61,-9.23 89.64,-9.71 89.67,-10.19 89.82,-10.65 89.97,-11.11 90.22,-11.52 90.48,-11.93 90.82,-12.27 91.17,-12.61 91.58,-12.85 92.00,-13.10 92.46,-13.24 92.92,-13.38 93.40,-13.40 93.88,-13.42 94.36,-13.33 94.83,-13.24 95.27,-13.04 95.71,-12.84 98.08,-11.68 100.44,-10.53 99.87,-8.03 99.30,-5.52 97.10,-6.67 94.89,-7.82 93.54,-9.36 92.20,-10.90 91.95,-11.32 91.71,-11.74 91.57,-12.20 91.44,-12.67 91.42,-13.15 91.40,-13.64 91.49,-14.11 91.59,-14.58 91.80,-15.02 92.00,-15.46 92.31,-15.84 92.61,-16.21 93.00,-16.50 93.39,-16.80 93.83,-16.99 94.28,-17.18 94.75,-17.26 95.23,-17.34 95.72,-17.30 96.20,-17.26 96.66,-17.11 97.12,-16.95 97.53,-16.70 97.94,-16.44 98.27,-16.09 98.61,-15.74 100.87,-15.65 103.13,-15.56 103.65,-13.38 104.16,-11.20 101.67,-11.81 99.19,-12.43 97.02,-13.09 94.84,-13.75 90.86,-15.30 86.88,-16.84 86.55,-17.10 86.21,-17.37 85.98,-17.73 85.75,-18.08 85.65,-18.50 85.55,-18.91 85.58,-19.33 85.62,-19.76 85.78,-20.15 85.95,-20.54 86.23,-20.85 86.52,-21.17 86.89,-21.38 87.26,-21.59 87.67,-21.67 88.09,-21.75 88.51,-21.70 88.93,-21.64 89.31,-21.45 89.69,-21.26 90.00,-20.96 90.30,-20.66 90.49,-20.28 90.68,-19.90 90.73,-19.48 90.79,-19.06 90.71,-18.64 90.63,-18.22 90.42,-17.85 90.22,-17.48 89.90,-17.20 89.58,-16.92 89.19,-16.75 88.80,-16.58 88.38,-16.54 87.96,-16.51 87.54,-16.61 87.13,-16.71 86.77,-16.94 86.41,-17.17 86.15,-17.50 85.88,-17.83 85.73,-18.23 85.59,-18.63 85.57,-19.05 85.56,-19.48 85.69,-19.88 85.81,-20.29 86.06,-20.64 86.31,-20.98 86.65,-21.23 86.99,-21.48 87.40,-21.60 87.81,-21.73 88.23,-21.72 88.66,-21.71 89.06,-21.56 89.45,-21.41 89.45,-21.42 89.45,-21.42 91.68,-21.61 93.90,-21.81 96.52,-21.34 99.14,-20.86 101.20,-20.23 103.26,-19.60 106.18,-18.06 109.11,-16.52 110.15,-13.25 111.19,-9.98 108.87,-8.58 106.54,-7.18 104.07,-7.42 101.60,-7.67 99.11,-8.32 96.63,-8.96 94.41,-9.93 92.20,-10.90 91.95,-11.32 91.71,-11.74 91.57,-12.20 91.44,-12.67 91.42,-13.15 91.40,-13.64 91.49,-14.11 91.59,-14.58 91.80,-15.02 92.00,-15.46 92.31,-15.84 92.61,-16.21 93.00,-16.50 93.39,-16.80 93.83,-16.99 94.28,-17.18 94.75,-17.26 95.23,-17.34 95.71,-17.30 96.20,-17.26 96.66,-17.11 97.12,-16.96 97.53,-16.70 97.94,-16.44 98.27,-16.09 98.61,-15.74 99.27,-14.94 99.94,-14.14 101.66,-12.76 103.39,-11.39 104.61,-9.36 105.84,-7.33 104.91,-4.98 103.98,-2.62 101.72,-2.52 99.45,-2.42 97.34,-3.16 95.23,-3.91 93.37,-4.97 91.50,-6.03 91.13,-6.33 90.75,-6.63 90.45,-7.01 90.16,-7.39 89.97,-7.83 89.77,-8.28 89.69,-8.75 89.61,-9.23 89.64,-9.71 89.67,-10.19 89.82,-10.65 89.97,-11.11 90.22,-11.52 90.48,-11.93 90.82,-12.27 91.16,-12.60 91.58,-12.85 92.00,-13.10 92.46,-13.24 92.92,-13.38 93.40,-13.40 93.88,-13.42 94.36,-13.33 94.83,-13.24 95.27,-13.04 95.71,-12.84 97.46,-11.29 99.22,-9.75 101.24,-7.79 103.26,-5.83 104.33,-2.28 105.40,1.26 102.45,2.99 99.50,4.71 96.57,4.42 93.64,4.12 90.51,3.40 87.39,2.68 85.21,2.34 83.03,2.01 83.93,-0.06 84.83,-2.14 86.63,-0.84 88.44,0.46 90.78,2.77 93.11,5.08 93.98,7.44 94.84,9.79 93.59,11.86 92.34,13.93 90.07,14.13 87.81,14.32 85.41,13.19 83.02,12.06 80.79,11.13 78.56,10.20 76.56,9.30 74.57,8.40 72.34,7.44 70.11,6.47 67.28,5.70 64.46,4.93 61.96,4.33 59.47,3.74 57.29,3.20 55.11,2.66 52.22,1.95 49.33,1.25 46.60,0.87 43.87,0.50 40.96,0.48 38.04,0.46 35.03,0.48 32.02,0.49 29.52,0.64 27.02,0.80 23.96,0.69 20.90,0.59 18.54,0.40 16.18,0.21 12.99,0.28 9.79,0.35 7.00,0.91 4.20,1.48 2.74,1.91 1.28,2.34 0.98,2.46 0.68,2.58 0.36,2.62 0.04,2.67 -0.27,2.63 -0.59,2.60 -0.90,2.49 -1.20,2.38 -1.47,2.20 -1.74,2.02 -1.95,1.79 -2.17,1.55 -2.32,1.27 -2.48,0.98 -2.56,0.67 -2.64,0.36 -2.65,0.04 -2.65,-0.27 -2.58,-0.59 -2.51,-0.90 -2.36,-1.19 -2.22,-1.48 -2.01,-1.72 -1.80,-1.97 -1.54,-2.15 -1.27,-2.34 -1.28,-2.34 L -1.28,-2.34 Z"></path></g><g transform="translate(291.5985727240503 254.03596553216585) rotate(9.50003072179705 46.37269585253455 25.36981566820276)" stroke="none"><path fill="#1e1e1e" d="M 2.65,-0.40 Q 2.65,-0.40 3.00,1.11 3.35,2.64 4.43,4.55 5.52,6.47 7.09,8.95 8.67,11.43 10.82,13.68 12.98,15.92 15.48,18.57 17.98,21.22 20.83,24.55 23.67,27.88 27.35,31.04 31.03,34.19 33.26,35.76 35.49,37.33 37.67,38.85 39.84,40.37 41.94,41.52 44.03,42.67 48.29,43.78 52.54,44.90 55.46,45.09 58.37,45.29 61.04,45.51 63.72,45.73 66.06,45.94 68.40,46.16 71.23,46.49 74.06,46.82 76.22,46.95 78.38,47.08 82.12,46.68 85.86,46.28 89.35,45.59 92.83,44.89 93.25,44.84 93.67,44.78 94.09,44.87 94.50,44.95 94.87,45.16 95.24,45.38 95.52,45.70 95.80,46.02 95.96,46.41 96.13,46.80 96.16,47.22 96.19,47.65 96.08,48.06 95.97,48.47 95.74,48.83 95.51,49.18 95.17,49.44 94.84,49.71 94.44,49.85 94.04,49.99 93.61,50.00 93.19,50.01 92.79,49.88 92.38,49.75 92.04,49.50 91.70,49.24 91.45,48.90 91.21,48.55 91.09,48.14 90.97,47.73 90.98,47.31 91.00,46.88 91.15,46.49 91.30,46.09 91.57,45.76 91.84,45.43 92.20,45.21 92.56,44.98 92.97,44.89 93.39,44.79 93.81,44.83 94.23,44.87 94.62,45.04 95.01,45.21 95.32,45.50 95.64,45.78 95.84,46.16 96.05,46.53 96.12,46.95 96.20,47.36 96.14,47.79 96.07,48.21 95.88,48.58 95.69,48.96 95.39,49.26 95.08,49.56 94.70,49.74 94.32,49.93 94.32,49.93 94.32,49.93 92.82,50.50 91.33,51.08 89.10,51.94 86.87,52.79 84.71,53.20 82.55,53.60 80.26,53.79 77.96,53.97 75.61,53.83 73.25,53.68 70.51,53.35 67.77,53.02 65.46,52.80 63.15,52.59 60.50,52.37 57.85,52.15 54.42,51.86 50.98,51.57 48.44,50.93 45.89,50.29 43.36,49.38 40.83,48.46 38.45,47.12 36.06,45.77 33.88,44.24 31.71,42.71 29.33,41.03 26.94,39.36 24.48,37.38 22.02,35.41 20.40,33.78 18.78,32.15 16.03,28.81 13.28,25.47 10.85,22.89 8.42,20.31 5.91,17.57 3.40,14.83 1.78,12.17 0.17,9.51 -1.11,6.54 -2.39,3.57 -2.52,1.99 -2.65,0.40 -2.66,0.08 -2.67,-0.23 -2.60,-0.55 -2.53,-0.87 -2.39,-1.16 -2.25,-1.45 -2.04,-1.70 -1.84,-1.95 -1.58,-2.14 -1.32,-2.33 -1.02,-2.46 -0.72,-2.58 -0.40,-2.63 -0.08,-2.68 0.23,-2.65 0.55,-2.62 0.86,-2.52 1.17,-2.41 1.44,-2.23 1.71,-2.06 1.93,-1.82 2.15,-1.59 2.31,-1.31 2.47,-1.03 2.56,-0.71 2.65,-0.40 2.65,-0.40 L 2.65,-0.40 Z"></path></g><g transform="translate(379.89920639446495 294.5044708323702) rotate(9.50003072179705 6.030529953917096 -6.8623271889401)" stroke="none"><path fill="#1e1e1e" d="M -2.01,-1.70 Q -2.01,-1.70 -0.92,-3.43 0.16,-5.17 1.12,-7.22 2.08,-9.26 3.06,-11.67 4.03,-14.08 6.00,-15.42 7.98,-16.76 9.97,-15.82 11.97,-14.87 13.09,-12.62 14.20,-10.36 15.30,-8.13 16.40,-5.90 16.46,-2.53 16.51,0.83 14.08,1.46 11.66,2.09 9.15,2.06 6.64,2.02 3.82,2.25 1.00,2.47 0.70,2.53 0.39,2.59 0.07,2.60 -0.23,2.61 -0.54,2.54 -0.85,2.48 -1.14,2.34 -1.42,2.20 -1.66,2.00 -1.91,1.80 -2.10,1.54 -2.28,1.29 -2.40,0.99 -2.53,0.70 -2.57,0.39 -2.62,0.07 -2.59,-0.23 -2.56,-0.55 -2.46,-0.85 -2.36,-1.14 -2.18,-1.41 -2.01,-1.68 -1.78,-1.89 -1.55,-2.11 -1.28,-2.27 -1.00,-2.42 -0.70,-2.51 -0.39,-2.59 0.47,-2.42 1.34,-2.25 1.66,-1.98 1.99,-1.71 2.21,-1.34 2.43,-0.98 2.52,-0.57 2.62,-0.15 2.57,0.26 2.53,0.68 2.35,1.07 2.18,1.46 1.89,1.77 1.60,2.08 1.22,2.28 0.85,2.48 0.43,2.55 0.01,2.62 -0.40,2.56 -0.82,2.49 -1.20,2.29 -1.57,2.09 -1.87,1.79 -2.16,1.48 -2.34,1.10 -2.52,0.71 -2.57,0.29 -2.62,-0.12 -2.53,-0.54 -2.44,-0.95 -2.22,-1.32 -2.01,-1.69 -1.68,-1.96 -1.36,-2.24 -0.97,-2.40 -0.57,-2.56 -0.15,-2.58 0.27,-2.61 0.68,-2.50 1.09,-2.38 1.44,-2.15 1.79,-1.91 2.05,-1.57 2.31,-1.24 2.45,-0.84 2.58,-0.43 2.59,-0.01 2.59,0.41 2.46,0.81 2.32,1.21 2.07,1.55 1.81,1.89 1.46,2.13 1.11,2.37 0.70,2.49 0.29,2.60 -0.12,2.58 -0.55,2.56 -0.07,2.58 0.39,2.59 0.07,2.60 -0.23,2.61 -0.54,2.54 -0.85,2.48 -1.14,2.34 -1.42,2.20 -1.66,2.00 -1.91,1.80 -2.10,1.54 -2.28,1.29 -2.40,0.99 -2.53,0.70 -2.57,0.39 -2.62,0.07 -2.59,-0.23 -2.56,-0.55 -2.46,-0.85 -2.36,-1.14 -2.18,-1.41 -2.01,-1.68 -1.78,-1.89 -1.55,-2.11 -1.28,-2.27 -1.00,-2.42 -0.70,-2.51 -0.39,-2.59 -0.98,-3.29 -1.58,-3.99 0.87,-4.21 3.33,-4.43 6.30,-4.65 9.28,-4.86 10.55,-2.86 11.82,-0.85 10.60,-2.89 9.38,-4.92 9.56,-7.69 9.73,-10.46 8.86,-8.48 7.99,-6.51 6.54,-3.77 5.09,-1.04 3.55,0.33 2.01,1.70 1.78,1.92 1.54,2.13 1.27,2.29 0.99,2.44 0.68,2.53 0.37,2.61 0.05,2.62 -0.25,2.62 -0.56,2.55 -0.88,2.49 -1.16,2.34 -1.45,2.20 -1.69,2.00 -1.93,1.79 -2.12,1.53 -2.31,1.28 -2.43,0.98 -2.54,0.69 -2.59,0.37 -2.64,0.05 -2.60,-0.25 -2.57,-0.57 -2.47,-0.87 -2.36,-1.17 -2.19,-1.44 -2.01,-1.70 -2.01,-1.70 L -2.01,-1.70 Z"></path></g><g transform="translate(364.3315025060451 299.20267850223615) rotate(9.50003072179705 21.62672811059906 -2.911290322580669)" stroke="none"><path fill="#1e1e1e" d="M 2.26,-1.35 Q 2.26,-1.35 3.02,-0.27 3.78,0.80 6.23,1.20 8.68,1.61 10.85,0.66 13.03,-0.28 14.96,-1.56 16.90,-2.85 18.25,-4.56 19.59,-6.27 22.41,-6.55 25.23,-6.82 27.21,-5.39 29.19,-3.95 32.06,-3.81 34.93,-3.67 37.11,-5.06 39.28,-6.44 39.98,-7.67 40.68,-8.89 40.49,-9.28 40.31,-9.66 40.26,-10.08 40.21,-10.50 40.29,-10.92 40.38,-11.34 40.60,-11.70 40.81,-12.07 41.13,-12.35 41.45,-12.63 41.85,-12.79 42.24,-12.95 42.66,-12.98 43.09,-13.01 43.50,-12.90 43.91,-12.79 44.26,-12.55 44.62,-12.32 44.88,-11.98 45.14,-11.65 45.28,-11.25 45.42,-10.85 45.42,-10.42 45.43,-10.00 45.30,-9.59 45.17,-9.19 44.91,-8.85 44.66,-8.51 44.31,-8.26 43.96,-8.02 43.55,-7.90 43.15,-7.78 42.72,-7.80 42.30,-7.82 41.90,-7.97 41.50,-8.13 41.18,-8.40 40.85,-8.67 40.63,-9.03 40.40,-9.39 40.31,-9.81 40.21,-10.22 40.25,-10.64 40.29,-11.07 40.47,-11.45 40.64,-11.84 40.93,-12.15 41.22,-12.47 41.59,-12.67 41.97,-12.87 42.38,-12.95 42.80,-13.02 43.22,-12.95 43.64,-12.89 44.02,-12.70 44.40,-12.50 44.69,-12.20 44.99,-11.89 44.99,-11.89 44.99,-11.89 45.37,-9.15 45.74,-6.40 44.68,-4.36 43.61,-2.32 40.88,-0.34 38.15,1.63 35.28,2.04 32.41,2.44 29.26,2.00 26.12,1.55 24.29,0.15 22.45,-1.23 20.97,0.68 19.49,2.61 17.13,4.13 14.77,5.64 12.42,6.54 10.07,7.43 7.28,7.19 4.49,6.96 1.79,5.46 -0.91,3.97 -1.58,2.66 -2.26,1.35 -2.39,1.06 -2.52,0.77 -2.57,0.46 -2.63,0.15 -2.61,-0.16 -2.59,-0.48 -2.49,-0.78 -2.40,-1.09 -2.23,-1.36 -2.07,-1.63 -1.84,-1.85 -1.62,-2.08 -1.34,-2.24 -1.07,-2.41 -0.77,-2.50 -0.46,-2.59 -0.14,-2.61 0.16,-2.63 0.48,-2.57 0.79,-2.51 1.08,-2.38 1.37,-2.25 1.62,-2.05 1.87,-1.85 2.06,-1.60 2.26,-1.35 2.26,-1.35 L 2.26,-1.35 Z"></path></g><g transform="translate(323.9743075523262 268.8647335731922) rotate(9.50003072179705 14.348502304147473 -4.158986175115217)" stroke="none"><path fill="#1e1e1e" d="M -1.61,-2.09 Q -1.61,-2.09 -0.27,-3.57 1.05,-5.05 4.07,-6.96 7.09,-8.87 11.08,-10.09 15.06,-11.32 18.87,-10.55 22.67,-9.79 25.53,-8.10 28.40,-6.41 29.86,-4.57 31.33,-2.74 31.59,-2.40 31.84,-2.06 31.98,-1.66 32.12,-1.25 32.12,-0.83 32.12,-0.40 31.98,-0.00 31.85,0.39 31.59,0.73 31.33,1.07 30.98,1.31 30.63,1.55 30.22,1.66 29.81,1.77 29.39,1.75 28.96,1.73 28.57,1.57 28.17,1.42 27.85,1.14 27.52,0.87 27.30,0.50 27.08,0.14 26.99,-0.27 26.90,-0.68 26.95,-1.10 26.99,-1.53 27.17,-1.91 27.35,-2.30 27.64,-2.61 27.93,-2.92 28.31,-3.12 28.68,-3.32 29.10,-3.38 29.52,-3.45 29.94,-3.39 30.36,-3.32 30.74,-3.12 31.11,-2.92 31.40,-2.61 31.70,-2.30 31.88,-1.92 32.05,-1.53 32.10,-1.11 32.15,-0.69 32.06,-0.27 31.96,0.13 31.75,0.50 31.53,0.86 31.20,1.14 30.88,1.41 30.49,1.57 30.09,1.73 29.67,1.75 29.24,1.77 28.83,1.66 28.42,1.55 28.07,1.31 27.72,1.07 27.72,1.07 27.72,1.07 26.21,0.09 24.69,-0.87 22.52,-2.16 20.35,-3.44 18.15,-4.04 15.96,-4.65 13.14,-3.80 10.32,-2.96 7.74,-1.34 5.15,0.27 3.38,1.18 1.61,2.09 1.33,2.26 1.06,2.42 0.75,2.51 0.45,2.60 0.13,2.62 -0.18,2.64 -0.49,2.58 -0.81,2.52 -1.10,2.38 -1.38,2.25 -1.63,2.05 -1.88,1.85 -2.08,1.60 -2.27,1.34 -2.40,1.05 -2.53,0.76 -2.58,0.45 -2.64,0.13 -2.62,-0.18 -2.59,-0.50 -2.50,-0.80 -2.40,-1.10 -2.23,-1.37 -2.06,-1.65 -1.84,-1.87 -1.61,-2.09 -1.61,-2.09 L -1.61,-2.09 Z"></path></g><g transform="translate(397.714284764984 251.83161894704438) rotate(9.50003072179705 -2.287442396313338 -5.822580645161281)" stroke="none"><path fill="#1e1e1e" d="M -1.96,1.76 Q -1.96,1.76 -3.33,0.82 -4.71,-0.12 -6.03,-3.05 -7.35,-5.99 -5.75,-9.62 -4.15,-13.25 -3.84,-13.54 -3.53,-13.83 -3.14,-14.00 -2.75,-14.18 -2.33,-14.22 -1.91,-14.26 -1.49,-14.17 -1.08,-14.07 -0.72,-13.85 -0.35,-13.63 -0.08,-13.30 0.18,-12.97 0.33,-12.58 0.49,-12.18 0.50,-11.76 0.52,-11.33 0.41,-10.92 0.29,-10.51 0.05,-10.16 -0.19,-9.82 -0.53,-9.56 -0.87,-9.31 -1.27,-9.18 -1.67,-9.04 -2.10,-9.05 -2.52,-9.05 -2.93,-9.19 -3.33,-9.33 -3.66,-9.59 -4.00,-9.85 -4.23,-10.21 -4.47,-10.56 -4.58,-10.97 -4.69,-11.38 -4.66,-11.81 -4.63,-12.23 -4.47,-12.62 -4.31,-13.02 -4.03,-13.34 -3.76,-13.66 -3.39,-13.87 -3.02,-14.09 -2.61,-14.18 -2.19,-14.26 -1.77,-14.21 -1.35,-14.16 -0.96,-13.98 -0.58,-13.80 -0.27,-13.50 0.02,-13.21 0.22,-12.83 0.41,-12.45 0.48,-12.03 0.54,-11.61 0.47,-11.20 0.40,-10.78 0.19,-10.40 -0.00,-10.03 -0.00,-10.03 -0.00,-10.03 0.20,-7.34 0.40,-4.65 1.18,-3.21 1.96,-1.76 2.14,-1.50 2.33,-1.24 2.44,-0.94 2.56,-0.65 2.60,-0.33 2.64,-0.02 2.60,0.29 2.57,0.61 2.46,0.91 2.35,1.21 2.17,1.47 1.99,1.73 1.75,1.95 1.51,2.16 1.23,2.31 0.95,2.46 0.64,2.54 0.33,2.62 0.02,2.62 -0.29,2.62 -0.60,2.55 -0.91,2.47 -1.20,2.33 -1.48,2.18 -1.72,1.97 -1.96,1.76 -1.96,1.76 L -1.96,1.76 Z"></path></g><g transform="translate(63.40658512177265 306.904418310781) rotate(9.50003072179705 153.25864055299536 -71.11866359447004)" stroke="none"><path fill="#1e1e1e" d="M -0.53,-2.58 Q -0.53,-2.58 2.89,-3.48 6.32,-4.39 8.59,-5.14 10.85,-5.90 14.62,-7.72 18.39,-9.55 20.39,-10.71 22.40,-11.87 24.59,-13.12 26.78,-14.36 29.27,-16.04 31.75,-17.71 33.77,-19.14 35.78,-20.56 37.69,-22.00 39.59,-23.44 41.90,-25.35 44.21,-27.26 45.95,-28.95 47.68,-30.64 50.05,-33.63 52.42,-36.63 54.90,-40.22 57.38,-43.80 59.50,-47.24 61.61,-50.68 62.77,-52.46 63.94,-54.24 65.38,-57.08 66.82,-59.92 68.09,-62.63 69.37,-65.34 70.71,-68.29 72.05,-71.23 73.40,-74.25 74.74,-77.26 76.49,-80.65 78.24,-84.04 80.44,-87.56 82.64,-91.08 84.03,-92.86 85.43,-94.63 88.55,-98.14 91.66,-101.66 93.26,-103.30 94.86,-104.95 96.71,-106.58 98.56,-108.21 101.18,-110.24 103.80,-112.28 106.17,-113.89 108.53,-115.51 110.58,-116.89 112.63,-118.28 114.48,-119.48 116.33,-120.68 118.34,-121.92 120.34,-123.16 123.14,-124.78 125.93,-126.40 128.29,-127.79 130.64,-129.18 132.81,-130.30 134.99,-131.42 137.71,-132.74 140.43,-134.05 142.97,-135.12 145.51,-136.18 147.46,-137.08 149.40,-137.97 151.43,-138.76 153.45,-139.55 157.15,-140.73 160.85,-141.92 163.27,-142.76 165.69,-143.60 167.91,-144.23 170.13,-144.86 174.45,-145.46 178.77,-146.06 182.71,-146.04 186.65,-146.02 190.07,-146.09 193.50,-146.15 197.55,-146.10 201.60,-146.05 205.35,-145.38 209.10,-144.70 211.30,-144.02 213.50,-143.35 216.69,-142.58 219.87,-141.82 223.06,-140.63 226.25,-139.45 229.57,-137.77 232.90,-136.08 235.74,-134.63 238.59,-133.18 241.64,-131.37 244.68,-129.56 247.42,-128.28 250.16,-127.01 253.27,-125.80 256.38,-124.60 259.37,-123.85 262.37,-123.10 266.11,-122.74 269.85,-122.38 273.27,-122.43 276.68,-122.48 279.96,-122.82 283.24,-123.16 286.91,-123.98 290.58,-124.81 293.95,-125.74 297.33,-126.68 299.77,-127.40 302.21,-128.12 304.10,-128.29 305.99,-128.47 306.41,-128.55 306.82,-128.64 307.25,-128.58 307.67,-128.53 308.05,-128.35 308.43,-128.16 308.74,-127.87 309.04,-127.57 309.24,-127.19 309.43,-126.81 309.49,-126.39 309.55,-125.97 309.48,-125.56 309.40,-125.14 309.20,-124.76 309.00,-124.39 308.68,-124.10 308.37,-123.82 307.98,-123.64 307.59,-123.47 307.17,-123.43 306.75,-123.39 306.33,-123.49 305.92,-123.59 305.56,-123.81 305.20,-124.04 304.93,-124.36 304.66,-124.69 304.51,-125.09 304.35,-125.49 304.34,-125.91 304.32,-126.33 304.44,-126.74 304.56,-127.15 304.80,-127.50 305.05,-127.85 305.39,-128.10 305.73,-128.35 306.14,-128.48 306.54,-128.61 306.97,-128.60 307.39,-128.60 307.79,-128.46 308.19,-128.31 308.53,-128.05 308.86,-127.79 309.10,-127.43 309.33,-127.08 309.44,-126.67 309.54,-126.26 309.51,-125.83 309.48,-125.41 309.32,-125.02 309.16,-124.62 308.88,-124.30 308.60,-123.99 308.23,-123.77 307.86,-123.56 307.86,-123.56 307.86,-123.56 305.01,-122.09 302.16,-120.62 298.86,-119.56 295.56,-118.50 292.12,-117.63 288.68,-116.76 284.66,-116.11 280.64,-115.45 276.95,-115.19 273.27,-114.92 269.31,-115.11 265.35,-115.30 262.92,-115.64 260.49,-115.98 257.23,-116.81 253.97,-117.64 250.55,-118.97 247.13,-120.29 244.10,-121.71 241.08,-123.13 238.09,-124.92 235.09,-126.70 232.21,-128.17 229.34,-129.64 226.44,-131.12 223.54,-132.60 220.78,-133.65 218.02,-134.69 214.68,-135.51 211.33,-136.32 207.84,-137.26 204.35,-138.19 200.78,-138.55 197.21,-138.91 193.67,-138.77 190.14,-138.63 186.51,-138.76 182.88,-138.89 179.22,-138.70 175.56,-138.51 171.82,-137.60 168.09,-136.69 163.75,-135.22 159.42,-133.76 155.93,-132.54 152.44,-131.32 150.39,-130.38 148.34,-129.44 145.97,-128.45 143.61,-127.46 140.97,-126.19 138.33,-124.92 136.34,-123.90 134.36,-122.88 131.98,-121.48 129.60,-120.08 126.90,-118.51 124.19,-116.94 122.25,-115.74 120.31,-114.54 118.52,-113.37 116.72,-112.21 114.69,-110.84 112.65,-109.47 110.47,-107.98 108.28,-106.49 105.83,-104.60 103.38,-102.70 101.74,-101.28 100.11,-99.85 98.55,-98.25 97.00,-96.65 95.34,-94.88 93.67,-93.12 91.19,-90.05 88.70,-86.98 86.73,-83.85 84.76,-80.71 83.07,-77.44 81.38,-74.17 80.08,-71.26 78.78,-68.35 77.37,-65.25 75.95,-62.15 74.61,-59.36 73.27,-56.57 71.56,-53.45 69.85,-50.33 67.66,-47.03 65.47,-43.73 64.32,-41.79 63.16,-39.86 60.59,-36.21 58.02,-32.56 56.74,-30.81 55.46,-29.06 53.97,-27.35 52.48,-25.65 50.51,-23.78 48.54,-21.92 46.09,-19.96 43.63,-18.01 41.62,-16.55 39.62,-15.08 37.51,-13.62 35.40,-12.15 32.67,-10.41 29.94,-8.66 27.75,-7.47 25.56,-6.29 23.44,-5.11 21.31,-3.94 19.13,-2.84 16.94,-1.75 14.83,-0.92 12.73,-0.09 10.13,0.71 7.54,1.52 4.04,2.05 0.53,2.58 0.21,2.61 -0.09,2.64 -0.41,2.59 -0.72,2.54 -1.02,2.41 -1.31,2.29 -1.57,2.10 -1.82,1.91 -2.02,1.66 -2.23,1.41 -2.36,1.13 -2.50,0.84 -2.56,0.53 -2.63,0.21 -2.62,-0.09 -2.61,-0.41 -2.52,-0.72 -2.43,-1.02 -2.27,-1.30 -2.11,-1.58 -1.89,-1.81 -1.67,-2.04 -1.40,-2.21 -1.13,-2.38 -0.83,-2.48 -0.53,-2.58 -0.53,-2.58 L -0.53,-2.58 Z"></path></g><g transform="translate(307.7897745007126 229.58618023337408) rotate(9.50003072179705 -10.605414746543772 1.2476958525345765)" stroke="none"><path fill="#1e1e1e" d="M 1.10,2.40 Q 1.10,2.40 -0.35,3.30 -1.82,4.21 -3.71,5.40 -5.60,6.60 -8.36,8.21 -11.12,9.82 -14.03,11.55 -16.95,13.27 -19.24,14.33 -21.52,15.39 -25.05,15.46 -28.58,15.53 -29.40,13.56 -30.23,11.59 -29.98,9.32 -29.73,7.06 -28.87,3.62 -28.00,0.18 -26.83,-2.20 -25.66,-4.60 -24.30,-6.38 -22.94,-8.15 -20.98,-9.50 -19.01,-10.84 -16.53,-11.87 -14.05,-12.90 -11.86,-13.37 -9.66,-13.84 -5.77,-13.36 -1.87,-12.88 1.35,-11.02 4.59,-9.16 6.08,-7.63 7.57,-6.11 7.84,-5.78 8.10,-5.45 8.25,-5.05 8.40,-4.65 8.41,-4.22 8.42,-3.80 8.30,-3.39 8.17,-2.99 7.92,-2.64 7.68,-2.30 7.33,-2.05 6.98,-1.80 6.58,-1.68 6.17,-1.55 5.75,-1.56 5.32,-1.57 4.92,-1.72 4.53,-1.87 4.19,-2.13 3.86,-2.40 3.63,-2.76 3.40,-3.12 3.30,-3.53 3.20,-3.94 3.23,-4.36 3.27,-4.79 3.44,-5.18 3.60,-5.57 3.89,-5.88 4.17,-6.20 4.54,-6.41 4.91,-6.62 5.33,-6.70 5.75,-6.78 6.17,-6.72 6.59,-6.66 6.97,-6.48 7.35,-6.29 7.65,-5.99 7.95,-5.69 8.14,-5.31 8.33,-4.92 8.39,-4.50 8.44,-4.08 8.36,-3.67 8.28,-3.25 8.07,-2.88 7.86,-2.51 7.55,-2.22 7.23,-1.94 6.84,-1.77 6.45,-1.60 6.03,-1.57 5.60,-1.54 5.19,-1.64 4.78,-1.74 4.42,-1.97 4.06,-2.20 4.06,-2.20 4.06,-2.20 1.54,-3.86 -0.97,-5.52 -3.44,-6.39 -5.92,-7.26 -8.78,-7.07 -11.64,-6.88 -14.78,-5.48 -17.92,-4.07 -19.82,-1.07 -21.72,1.92 -22.90,5.60 -24.08,9.28 -22.07,8.41 -20.07,7.53 -17.15,5.89 -14.22,4.24 -11.62,2.86 -9.01,1.48 -6.70,0.07 -4.39,-1.34 -2.75,-1.87 -1.10,-2.40 -0.80,-2.49 -0.50,-2.59 -0.18,-2.61 0.13,-2.64 0.44,-2.58 0.76,-2.53 1.05,-2.40 1.34,-2.27 1.59,-2.08 1.85,-1.88 2.05,-1.63 2.24,-1.38 2.38,-1.09 2.51,-0.81 2.57,-0.49 2.63,-0.18 2.62,0.13 2.60,0.45 2.51,0.75 2.42,1.06 2.25,1.33 2.09,1.61 1.87,1.83 1.65,2.06 1.37,2.23 1.10,2.40 1.10,2.40 L 1.10,2.40 Z"></path></g><g transform="translate(363.52987326419145 315.2178796257857) rotate(9.50003072179705 18.923387096774206 8.317972350230434)" stroke="none"><path fill="#1e1e1e" d="M -1.86,-1.86 Q -1.86,-1.86 -1.20,-2.64 -0.54,-3.42 0.17,-4.20 0.89,-4.98 1.20,-5.15 1.52,-5.33 1.87,-5.42 2.22,-5.51 2.58,-5.52 2.95,-5.53 3.30,-5.45 3.65,-5.37 3.98,-5.21 4.30,-5.04 4.58,-4.81 4.85,-4.57 5.06,-4.28 5.27,-3.98 5.41,-3.65 5.54,-3.31 5.59,-2.95 5.64,-2.59 5.61,-2.23 5.57,-1.87 5.45,-1.53 5.33,-1.19 5.13,-0.89 4.93,-0.59 4.66,-0.34 4.39,-0.10 5.34,2.78 6.29,5.66 6.40,8.61 6.51,11.56 7.86,13.24 9.20,14.93 11.84,15.22 14.48,15.51 16.75,15.70 19.03,15.88 21.88,15.92 24.73,15.96 26.98,15.77 29.22,15.59 31.34,15.33 33.47,15.08 33.49,12.61 33.52,10.14 31.59,8.98 29.67,7.81 26.79,8.06 23.91,8.30 21.52,7.79 19.13,7.27 17.66,5.60 16.19,3.92 16.37,1.47 16.56,-0.97 18.57,-2.65 20.58,-4.33 20.93,-4.58 21.27,-4.84 21.68,-4.96 22.08,-5.09 22.51,-5.08 22.93,-5.07 23.33,-4.93 23.73,-4.79 24.06,-4.52 24.40,-4.26 24.63,-3.90 24.86,-3.55 24.96,-3.13 25.07,-2.72 25.04,-2.30 25.01,-1.87 24.84,-1.48 24.68,-1.09 24.40,-0.77 24.11,-0.45 23.75,-0.24 23.38,-0.03 22.96,0.04 22.54,0.12 22.12,0.07 21.70,0.02 21.32,-0.16 20.94,-0.35 20.63,-0.64 20.33,-0.94 20.14,-1.32 19.95,-1.70 19.89,-2.12 19.83,-2.54 19.90,-2.96 19.98,-3.38 20.19,-3.75 20.39,-4.12 20.71,-4.41 21.02,-4.69 21.41,-4.86 21.80,-5.03 22.23,-5.07 22.65,-5.11 23.06,-5.01 23.47,-4.91 23.83,-4.68 24.19,-4.46 24.46,-4.13 24.73,-3.80 24.88,-3.40 25.03,-3.00 25.04,-2.58 25.06,-2.15 24.94,-1.75 24.81,-1.34 24.57,-0.99 24.32,-0.65 24.32,-0.65 24.32,-0.65 23.28,0.49 22.23,1.64 24.74,1.74 27.25,1.83 30.07,1.59 32.89,1.35 35.34,2.48 37.79,3.61 38.76,6.61 39.72,9.60 39.91,12.04 40.10,14.47 38.67,16.90 37.24,19.32 34.87,20.57 32.50,21.81 29.92,22.33 27.34,22.84 24.69,22.94 22.04,23.05 18.83,22.91 15.62,22.77 12.66,22.02 9.69,21.27 7.33,20.42 4.98,19.57 3.43,17.89 1.89,16.21 1.24,14.14 0.58,12.07 0.39,8.98 0.20,5.88 0.01,2.65 -0.17,-0.57 0.35,-2.77 0.89,-4.98 1.20,-5.15 1.52,-5.33 1.87,-5.42 2.22,-5.51 2.58,-5.52 2.95,-5.53 3.30,-5.45 3.65,-5.37 3.98,-5.21 4.30,-5.04 4.58,-4.81 4.85,-4.57 5.06,-4.28 5.27,-3.98 5.41,-3.65 5.54,-3.31 5.59,-2.95 5.64,-2.59 5.61,-2.23 5.57,-1.87 5.45,-1.53 5.33,-1.19 5.13,-0.89 4.93,-0.59 4.66,-0.34 4.39,-0.10 3.90,0.22 3.41,0.55 2.64,1.21 1.86,1.86 1.61,2.06 1.36,2.26 1.07,2.39 0.78,2.52 0.47,2.58 0.15,2.63 -0.15,2.61 -0.47,2.60 -0.78,2.50 -1.08,2.41 -1.35,2.24 -1.63,2.08 -1.85,1.85 -2.08,1.63 -2.24,1.35 -2.41,1.08 -2.50,0.78 -2.60,0.47 -2.61,0.15 -2.63,-0.15 -2.58,-0.47 -2.52,-0.78 -2.39,-1.07 -2.26,-1.36 -2.06,-1.61 -1.86,-1.86 -1.86,-1.86 L -1.86,-1.86 Z"></path></g><g transform="translate(378.1679085043361 309.57487119136) rotate(9.50003072179705 6.654377880184313 -1.455645161290306)" stroke="none"><path fill="#1e1e1e" d="M -0.14,-2.63 Q -0.14,-2.63 1.99,-2.81 4.13,-2.99 8.16,-4.55 12.20,-6.12 12.61,-6.23 13.02,-6.35 13.44,-6.33 13.86,-6.30 14.26,-6.15 14.65,-5.99 14.98,-5.72 15.30,-5.44 15.52,-5.08 15.74,-4.71 15.83,-4.30 15.93,-3.88 15.88,-3.46 15.84,-3.04 15.66,-2.65 15.48,-2.27 15.19,-1.96 14.90,-1.65 14.52,-1.45 14.15,-1.25 13.73,-1.18 13.31,-1.11 12.89,-1.18 12.47,-1.25 12.09,-1.45 11.72,-1.64 11.42,-1.95 11.13,-2.26 10.95,-2.65 10.77,-3.03 10.73,-3.45 10.68,-3.88 10.77,-4.29 10.86,-4.71 11.08,-5.07 11.30,-5.44 11.62,-5.71 11.95,-5.99 12.34,-6.14 12.74,-6.30 13.16,-6.33 13.58,-6.35 13.99,-6.24 14.40,-6.12 14.76,-5.89 15.11,-5.65 15.36,-5.31 15.62,-4.97 15.76,-4.57 15.90,-4.17 15.90,-3.74 15.90,-3.32 15.76,-2.91 15.63,-2.51 15.37,-2.17 15.11,-1.83 14.76,-1.59 14.41,-1.36 14.41,-1.36 14.41,-1.36 11.60,-0.00 8.80,1.35 6.63,1.93 4.47,2.51 2.30,2.57 0.14,2.63 -0.17,2.61 -0.48,2.59 -0.79,2.49 -1.09,2.40 -1.36,2.23 -1.63,2.06 -1.86,1.84 -2.08,1.61 -2.24,1.34 -2.41,1.07 -2.50,0.76 -2.59,0.46 -2.61,0.14 -2.63,-0.17 -2.57,-0.48 -2.51,-0.79 -2.38,-1.08 -2.25,-1.37 -2.05,-1.62 -1.85,-1.87 -1.60,-2.07 -1.35,-2.26 -1.06,-2.39 -0.77,-2.52 -0.45,-2.57 -0.14,-2.63 -0.14,-2.63 L -0.14,-2.63 Z"></path></g><g transform="translate(147.029653230083 327.7163187801532) rotate(9.50003072179705 3.327188940092185 0.623847926267274)" stroke="none"><path fill="#1e1e1e" d="M 0.48,-2.59 Q 0.48,-2.59 3.81,-1.96 7.13,-1.33 7.53,-1.18 7.93,-1.04 8.26,-0.77 8.60,-0.51 8.83,-0.15 9.06,0.19 9.16,0.61 9.27,1.02 9.23,1.44 9.20,1.87 9.03,2.26 8.87,2.65 8.59,2.97 8.30,3.28 7.93,3.49 7.57,3.70 7.15,3.79 6.73,3.87 6.31,3.81 5.89,3.76 5.51,3.57 5.13,3.38 4.82,3.08 4.52,2.78 4.33,2.40 4.14,2.02 4.08,1.60 4.02,1.18 4.10,0.76 4.18,0.35 4.39,-0.01 4.60,-0.38 4.91,-0.67 5.23,-0.95 5.62,-1.12 6.01,-1.29 6.43,-1.33 6.85,-1.37 7.26,-1.27 7.68,-1.16 8.04,-0.94 8.40,-0.71 8.66,-0.38 8.93,-0.05 9.08,0.34 9.23,0.74 9.24,1.16 9.25,1.59 9.13,1.99 9.01,2.40 8.76,2.75 8.51,3.09 8.17,3.34 7.83,3.59 7.42,3.72 7.01,3.84 6.59,3.83 6.16,3.82 6.16,3.82 6.17,3.82 2.84,3.21 -0.48,2.59 -0.79,2.50 -1.09,2.40 -1.36,2.24 -1.63,2.07 -1.86,1.84 -2.08,1.62 -2.25,1.34 -2.41,1.07 -2.50,0.77 -2.60,0.46 -2.62,0.14 -2.63,-0.17 -2.57,-0.48 -2.52,-0.79 -2.38,-1.08 -2.25,-1.37 -2.05,-1.62 -1.86,-1.87 -1.61,-2.07 -1.35,-2.26 -1.06,-2.39 -0.77,-2.52 -0.46,-2.58 -0.14,-2.63 0.16,-2.61 0.48,-2.59 0.48,-2.59 L 0.48,-2.59 Z"></path></g><g transform="translate(157.4113425661884 323.6608927236292) rotate(9.50003072179705 -7.69412442396316 -10.397465437788014)" stroke="none"><path fill="#1e1e1e" d="M -0.23,2.63 Q -0.23,2.63 -1.58,2.82 -2.92,3.02 -5.50,2.54 -8.09,2.05 -10.25,1.23 -12.42,0.40 -14.85,-1.38 -17.28,-3.18 -18.03,-5.62 -18.78,-8.07 -18.58,-10.23 -18.39,-12.39 -17.59,-14.44 -16.80,-16.49 -15.29,-19.17 -13.77,-21.84 -13.61,-22.23 -13.44,-22.62 -13.16,-22.93 -12.87,-23.25 -12.50,-23.46 -12.13,-23.67 -11.72,-23.75 -11.30,-23.83 -10.88,-23.77 -10.46,-23.72 -10.08,-23.53 -9.70,-23.34 -9.39,-23.04 -9.09,-22.74 -8.90,-22.36 -8.71,-21.98 -8.66,-21.56 -8.60,-21.14 -8.68,-20.72 -8.76,-20.30 -8.97,-19.93 -9.17,-19.56 -9.49,-19.28 -9.81,-18.99 -10.20,-18.83 -10.59,-18.66 -11.01,-18.62 -11.43,-18.59 -11.85,-18.69 -12.26,-18.79 -12.62,-19.02 -12.98,-19.25 -13.24,-19.58 -13.51,-19.91 -13.66,-20.31 -13.80,-20.71 -13.82,-21.13 -13.83,-21.56 -13.70,-21.96 -13.58,-22.37 -13.33,-22.72 -13.08,-23.06 -12.74,-23.31 -12.39,-23.56 -11.99,-23.68 -11.58,-23.81 -11.16,-23.80 -10.73,-23.79 -10.33,-23.64 -9.93,-23.49 -9.60,-23.23 -9.27,-22.96 -9.04,-22.60 -8.81,-22.25 -8.71,-21.83 -8.61,-21.42 -8.64,-21.00 -8.67,-20.58 -8.67,-20.58 -8.67,-20.58 -9.37,-17.04 -10.06,-13.50 -10.79,-11.40 -11.52,-9.31 -9.87,-7.52 -8.22,-5.74 -5.27,-4.62 -2.33,-3.50 -1.04,-3.06 0.23,-2.63 0.55,-2.56 0.86,-2.49 1.14,-2.36 1.43,-2.22 1.68,-2.01 1.92,-1.81 2.11,-1.55 2.30,-1.29 2.42,-1.00 2.54,-0.70 2.59,-0.39 2.64,-0.07 2.61,0.23 2.58,0.55 2.48,0.85 2.37,1.15 2.20,1.42 2.03,1.69 1.79,1.91 1.56,2.13 1.28,2.28 1.01,2.44 0.70,2.52 0.39,2.61 0.07,2.62 -0.23,2.63 -0.23,2.63 L -0.23,2.63 Z"></path></g><g transform="translate(146.1683549616696 294.19658290812697) rotate(9.50003072179705 -59.68145161290323 -3.7430875576036726)" stroke="none"><path fill="#1e1e1e" d="M -2.63,0 Q -2.63,0 -2.73,-1.67 -2.82,-3.34 -2.85,-5.73 -2.89,-8.12 -4.41,-9.69 -5.92,-11.26 -8.46,-11.97 -11.00,-12.68 -13.55,-11.95 -16.09,-11.22 -18.21,-10.06 -20.32,-8.90 -22.37,-7.80 -24.42,-6.69 -26.65,-5.68 -28.89,-4.66 -30.92,-3.63 -32.95,-2.60 -35.47,-1.57 -37.99,-0.53 -40.68,0.18 -43.38,0.90 -46.86,1.55 -50.35,2.21 -53.79,2.50 -57.23,2.80 -60.75,3.08 -64.26,3.36 -67.55,3.89 -70.84,4.42 -74.78,5.47 -78.71,6.52 -80.87,7.15 -83.03,7.78 -87.34,9.05 -91.66,10.31 -95.22,11.19 -98.78,12.07 -102.01,12.50 -105.24,12.92 -108.11,12.99 -110.99,13.07 -113.58,12.54 -116.17,12.02 -118.45,10.04 -120.72,8.06 -121.65,4.97 -122.58,1.89 -122.28,-1.66 -121.98,-5.21 -121.94,-5.64 -121.90,-6.06 -121.73,-6.45 -121.56,-6.84 -121.27,-7.15 -120.98,-7.46 -120.61,-7.67 -120.24,-7.88 -119.82,-7.95 -119.40,-8.03 -118.98,-7.97 -118.56,-7.90 -118.18,-7.71 -117.80,-7.52 -117.51,-7.22 -117.21,-6.91 -117.02,-6.53 -116.84,-6.15 -116.79,-5.73 -116.73,-5.30 -116.82,-4.89 -116.90,-4.47 -117.11,-4.10 -117.33,-3.74 -117.65,-3.46 -117.97,-3.17 -118.36,-3.01 -118.75,-2.85 -119.17,-2.82 -119.60,-2.79 -120.01,-2.89 -120.42,-3.00 -120.78,-3.23 -121.13,-3.46 -121.39,-3.80 -121.66,-4.13 -121.80,-4.53 -121.94,-4.93 -121.95,-5.36 -121.96,-5.78 -121.83,-6.19 -121.70,-6.59 -121.45,-6.93 -121.20,-7.28 -120.85,-7.52 -120.50,-7.77 -120.09,-7.89 -119.69,-8.01 -119.26,-7.99 -118.84,-7.98 -118.44,-7.83 -118.04,-7.68 -117.71,-7.41 -117.39,-7.14 -117.16,-6.78 -116.93,-6.42 -116.84,-6.00 -116.74,-5.59 -116.74,-5.59 -116.74,-5.59 -116.17,-3.79 -115.60,-2.00 -115.18,0.20 -114.77,2.40 -112.93,3.78 -111.09,5.16 -108.46,5.10 -105.84,5.04 -103.15,4.72 -100.45,4.39 -97.09,3.60 -93.72,2.80 -91.51,2.20 -89.29,1.60 -87.26,0.95 -85.22,0.30 -83.04,-0.33 -80.86,-0.97 -76.73,-2.07 -72.60,-3.18 -68.62,-3.80 -64.64,-4.43 -61.29,-4.70 -57.95,-4.96 -54.72,-5.23 -51.49,-5.51 -48.25,-6.12 -45.00,-6.73 -41.87,-7.59 -38.75,-8.44 -36.43,-9.65 -34.12,-10.87 -32.11,-11.77 -30.10,-12.67 -27.52,-13.90 -24.93,-15.14 -22.05,-16.74 -19.17,-18.34 -16.11,-19.26 -13.06,-20.17 -9.86,-19.78 -6.66,-19.38 -3.94,-18.11 -1.21,-16.85 0.01,-15.09 1.24,-13.33 2.07,-10.74 2.89,-8.15 2.85,-5.75 2.82,-3.34 2.73,-1.67 2.63,0 2.60,0.31 2.56,0.63 2.44,0.92 2.33,1.22 2.15,1.48 1.97,1.74 1.73,1.96 1.49,2.17 1.21,2.31 0.93,2.46 0.62,2.54 0.31,2.61 -0.00,2.61 -0.31,2.61 -0.62,2.54 -0.93,2.46 -1.21,2.31 -1.49,2.17 -1.73,1.96 -1.97,1.74 -2.15,1.48 -2.33,1.22 -2.44,0.92 -2.56,0.63 -2.60,0.31 -2.63,-0.00 -2.63,-0.00 L -2.63,0 Z"></path></g><g transform="translate(58.79232769963835 272.9326576852077) rotate(9.50003072179705 -11.437211981566833 -0.6238479262673025)" stroke="none"><path fill="#1e1e1e" d="M 1.95,1.78 Q 1.95,1.78 0.70,3.28 -0.54,4.77 -2.47,6.37 -4.40,7.96 -7.06,9.01 -9.73,10.06 -12.52,9.75 -15.32,9.45 -17.84,8.43 -20.37,7.40 -22.61,4.49 -24.85,1.58 -24.75,-3.46 -24.66,-8.51 -24.56,-8.93 -24.46,-9.34 -24.23,-9.70 -24.00,-10.06 -23.67,-10.32 -23.34,-10.59 -22.94,-10.74 -22.55,-10.89 -22.12,-10.90 -21.70,-10.92 -21.29,-10.79 -20.88,-10.67 -20.54,-10.43 -20.19,-10.18 -19.94,-9.84 -19.69,-9.49 -19.56,-9.09 -19.44,-8.68 -19.45,-8.26 -19.46,-7.83 -19.60,-7.43 -19.74,-7.03 -20.01,-6.70 -20.27,-6.37 -20.63,-6.14 -20.99,-5.91 -21.40,-5.80 -21.81,-5.70 -22.24,-5.73 -22.66,-5.76 -23.05,-5.93 -23.44,-6.09 -23.76,-6.38 -24.08,-6.66 -24.29,-7.03 -24.50,-7.39 -24.58,-7.81 -24.66,-8.23 -24.61,-8.65 -24.55,-9.07 -24.37,-9.45 -24.18,-9.83 -23.88,-10.14 -23.58,-10.44 -23.20,-10.63 -22.82,-10.82 -22.40,-10.88 -21.98,-10.94 -21.56,-10.86 -21.14,-10.78 -20.77,-10.58 -20.40,-10.37 -20.12,-10.05 -19.83,-9.74 -19.66,-9.35 -19.49,-8.96 -19.46,-8.54 -19.42,-8.11 -19.42,-8.11 -19.42,-8.11 -18.80,-3.94 -18.17,0.22 -16.09,1.60 -14.00,2.98 -11.31,3.20 -8.63,3.42 -6.67,2.19 -4.71,0.96 -3.33,-0.41 -1.95,-1.78 -1.70,-1.99 -1.46,-2.20 -1.18,-2.34 -0.89,-2.49 -0.58,-2.56 -0.27,-2.63 0.04,-2.62 0.36,-2.62 0.67,-2.53 0.98,-2.45 1.26,-2.30 1.54,-2.15 1.77,-1.93 2.01,-1.72 2.18,-1.45 2.36,-1.18 2.47,-0.88 2.58,-0.58 2.61,-0.27 2.64,0.04 2.60,0.36 2.55,0.67 2.44,0.97 2.32,1.26 2.13,1.52 1.95,1.78 1.95,1.78 L 1.95,1.78 Z"></path></g><g transform="translate(30.127289372282974 280.4644136646058) rotate(9.50003072179705 -0.207949308755758 -7.278225806451616)" stroke="none"><path fill="#1e1e1e" d="M -2.52,0.77 Q -2.52,0.77 -3.03,-0.76 -3.55,-2.31 -3.66,-5.12 -3.77,-7.94 -2.51,-11.64 -1.25,-15.34 -1.06,-15.72 -0.87,-16.10 -0.57,-16.40 -0.27,-16.69 0.10,-16.88 0.49,-17.07 0.91,-17.12 1.33,-17.18 1.75,-17.09 2.16,-17.01 2.53,-16.80 2.90,-16.59 3.18,-16.27 3.46,-15.95 3.63,-15.56 3.80,-15.17 3.83,-14.75 3.86,-14.32 3.75,-13.91 3.65,-13.50 3.42,-13.14 3.19,-12.79 2.85,-12.52 2.52,-12.26 2.12,-12.11 1.72,-11.97 1.30,-11.96 0.87,-11.95 0.47,-12.08 0.06,-12.21 -0.27,-12.46 -0.62,-12.71 -0.86,-13.05 -1.11,-13.40 -1.23,-13.81 -1.35,-14.21 -1.34,-14.64 -1.32,-15.06 -1.17,-15.46 -1.03,-15.86 -0.76,-16.19 -0.49,-16.52 -0.13,-16.74 0.22,-16.97 0.63,-17.07 1.05,-17.17 1.47,-17.13 1.89,-17.10 2.28,-16.93 2.67,-16.76 2.99,-16.47 3.30,-16.18 3.51,-15.81 3.71,-15.44 3.79,-15.02 3.87,-14.61 3.81,-14.19 3.75,-13.77 3.75,-13.77 3.75,-13.77 3.06,-11.37 2.37,-8.97 2.00,-6.43 1.63,-3.90 2.08,-2.34 2.52,-0.77 2.58,-0.46 2.63,-0.15 2.61,0.16 2.59,0.48 2.50,0.78 2.40,1.09 2.23,1.36 2.07,1.63 1.84,1.86 1.62,2.08 1.34,2.24 1.07,2.41 0.77,2.50 0.46,2.59 0.14,2.61 -0.16,2.63 -0.48,2.57 -0.79,2.51 -1.08,2.38 -1.37,2.25 -1.62,2.05 -1.87,1.86 -2.06,1.60 -2.26,1.35 -2.39,1.06 -2.52,0.77 -2.52,0.77 L -2.52,0.77 Z"></path></g><g transform="translate(121.74376585553728 288.54307402155155) rotate(9.50003072179705 -4.782834101382491 -18.923387096774206)" stroke="none"><path fill="#1e1e1e" d="M -2.01,1.72 Q -2.01,1.72 -3.55,0.14 -5.09,-1.44 -7.29,-5.87 -9.48,-10.29 -10.15,-12.92 -10.82,-15.55 -11.34,-18.76 -11.87,-21.97 -11.98,-24.79 -12.10,-27.61 -11.89,-29.89 -11.68,-32.17 -10.15,-35.77 -8.61,-39.37 -8.38,-39.72 -8.14,-40.07 -7.80,-40.32 -7.46,-40.58 -7.06,-40.72 -6.65,-40.85 -6.23,-40.85 -5.80,-40.85 -5.40,-40.71 -5.00,-40.58 -4.66,-40.32 -4.32,-40.06 -4.08,-39.71 -3.85,-39.35 -3.73,-38.94 -3.62,-38.54 -3.65,-38.11 -3.67,-37.69 -3.83,-37.29 -3.99,-36.90 -4.26,-36.57 -4.54,-36.25 -4.90,-36.03 -5.27,-35.82 -5.68,-35.72 -6.10,-35.63 -6.52,-35.68 -6.94,-35.73 -7.33,-35.91 -7.71,-36.09 -8.02,-36.38 -8.33,-36.67 -8.53,-37.05 -8.72,-37.43 -8.79,-37.84 -8.86,-38.26 -8.79,-38.68 -8.72,-39.10 -8.52,-39.48 -8.32,-39.85 -8.01,-40.14 -7.70,-40.44 -7.32,-40.61 -6.93,-40.79 -6.51,-40.84 -6.08,-40.88 -5.67,-40.79 -5.25,-40.70 -4.89,-40.48 -4.53,-40.26 -4.25,-39.93 -3.98,-39.61 -3.82,-39.21 -3.67,-38.82 -3.64,-38.39 -3.62,-37.97 -3.74,-37.56 -3.85,-37.15 -3.85,-37.15 -3.85,-37.15 -4.35,-35.70 -4.85,-34.26 -5.38,-31.04 -5.92,-27.83 -5.84,-25.39 -5.77,-22.96 -5.29,-20.00 -4.82,-17.04 -4.25,-14.72 -3.68,-12.40 -2.16,-8.82 -0.64,-5.24 0.68,-3.48 2.01,-1.72 2.19,-1.46 2.36,-1.19 2.47,-0.89 2.58,-0.59 2.61,-0.27 2.65,0.04 2.60,0.36 2.56,0.67 2.44,0.97 2.32,1.27 2.14,1.53 1.95,1.79 1.71,1.99 1.47,2.20 1.18,2.35 0.89,2.49 0.58,2.56 0.27,2.63 -0.04,2.63 -0.36,2.62 -0.67,2.54 -0.98,2.46 -1.26,2.31 -1.54,2.15 -1.77,1.94 -2.01,1.72 -2.01,1.72 L -2.01,1.72 Z"></path></g><g transform="translate(406 219) rotate(0 9.5 37.5)" stroke="none"><path fill="#1e1e1e" d="M 1.55,-2.13 Q 1.55,-2.13 4.75,0.12 7.94,2.38 10.37,5.00 12.79,7.62 14.68,11.89 16.58,16.16 17.77,20.27 18.96,24.39 19.76,28.79 20.56,33.20 20.91,37.89 21.25,42.58 21.13,46.82 21.01,51.06 20.35,54.86 19.70,58.66 18.22,62.86 16.75,67.06 15.65,69.66 14.55,72.25 13.74,74.11 12.93,75.98 12.71,76.34 12.49,76.71 12.16,76.98 11.84,77.25 11.44,77.41 11.04,77.56 10.62,77.58 10.19,77.60 9.79,77.49 9.38,77.37 9.03,77.13 8.68,76.89 8.42,76.55 8.17,76.21 8.03,75.81 7.90,75.40 7.90,74.98 7.91,74.55 8.04,74.15 8.18,73.75 8.44,73.41 8.70,73.08 9.05,72.84 9.41,72.60 9.82,72.49 10.23,72.38 10.65,72.41 11.08,72.43 11.47,72.59 11.86,72.75 12.19,73.03 12.51,73.31 12.72,73.67 12.94,74.04 13.03,74.45 13.12,74.87 13.07,75.29 13.02,75.71 12.84,76.10 12.66,76.48 12.37,76.79 12.07,77.10 11.69,77.29 11.32,77.49 10.90,77.56 10.48,77.62 10.06,77.55 9.64,77.48 9.27,77.28 8.89,77.08 8.60,76.77 8.31,76.46 8.14,76.07 7.96,75.68 7.92,75.26 7.87,74.84 7.97,74.42 8.06,74.01 8.06,74.01 8.06,74.01 8.78,72.10 9.50,70.20 10.47,67.68 11.45,65.17 12.81,61.42 14.18,57.67 14.80,54.26 15.42,50.85 15.59,46.91 15.77,42.97 15.46,38.57 15.15,34.17 14.41,30.03 13.68,25.90 12.60,22.10 11.52,18.30 10.10,14.77 8.68,11.23 6.69,9.02 4.70,6.81 1.57,4.47 -1.55,2.13 -1.78,1.91 -2.01,1.70 -2.19,1.43 -2.36,1.16 -2.47,0.86 -2.57,0.56 -2.60,0.25 -2.64,-0.06 -2.59,-0.38 -2.54,-0.69 -2.42,-0.98 -2.30,-1.28 -2.12,-1.54 -1.93,-1.79 -1.68,-2.00 -1.44,-2.20 -1.16,-2.35 -0.87,-2.49 -0.56,-2.56 -0.25,-2.62 0.06,-2.62 0.38,-2.61 0.69,-2.52 0.99,-2.44 1.27,-2.29 1.55,-2.13 1.55,-2.13 L 1.55,-2.13 Z"></path></g><g transform="translate(385.5 202) rotate(0 11.25 -7.75)" stroke="none"><path fill="#1e1e1e" d="M -2.38,-1.19 Q -2.38,-1.19 -1.41,-3.94 -0.45,-6.69 0.70,-8.75 1.86,-10.81 3.39,-12.63 4.92,-14.45 6.99,-16.18 9.06,-17.91 10.79,-19.19 12.53,-20.46 14.61,-21.30 16.70,-22.13 19.26,-21.69 21.81,-21.24 23.63,-17.45 25.45,-13.66 25.05,-11.14 24.65,-8.61 23.98,-5.92 23.30,-3.23 22.63,-0.85 21.95,1.52 21.51,3.29 21.06,5.07 20.90,5.46 20.74,5.86 20.47,6.18 20.19,6.50 19.82,6.72 19.46,6.94 19.04,7.03 18.63,7.12 18.21,7.07 17.78,7.02 17.40,6.84 17.01,6.66 16.71,6.37 16.40,6.08 16.20,5.70 16.00,5.33 15.94,4.91 15.87,4.49 15.94,4.07 16.01,3.65 16.21,3.27 16.41,2.90 16.72,2.61 17.03,2.32 17.41,2.14 17.80,1.96 18.22,1.92 18.65,1.87 19.06,1.97 19.47,2.06 19.84,2.28 20.20,2.50 20.48,2.82 20.75,3.15 20.91,3.54 21.06,3.94 21.08,4.36 21.11,4.79 20.99,5.20 20.88,5.61 20.64,5.96 20.40,6.31 20.06,6.56 19.72,6.82 19.31,6.95 18.91,7.09 18.49,7.09 18.06,7.09 17.66,6.95 17.26,6.81 16.92,6.55 16.58,6.30 16.35,5.94 16.11,5.59 16.00,5.18 15.88,4.77 15.91,4.35 15.93,3.92 15.93,3.92 15.93,3.92 16.28,2.13 16.63,0.33 17.03,-2.10 17.43,-4.55 17.94,-7.12 18.44,-9.70 18.55,-12.80 18.66,-15.90 16.04,-14.24 13.42,-12.58 10.61,-9.98 7.81,-7.37 6.72,-5.51 5.63,-3.65 4.00,-1.23 2.38,1.19 2.20,1.45 2.02,1.72 1.79,1.94 1.55,2.16 1.27,2.31 0.99,2.46 0.68,2.55 0.37,2.63 0.05,2.64 -0.26,2.64 -0.58,2.57 -0.89,2.50 -1.18,2.36 -1.46,2.21 -1.71,2.01 -1.95,1.80 -2.14,1.54 -2.33,1.28 -2.45,0.98 -2.57,0.68 -2.61,0.36 -2.66,0.05 -2.62,-0.26 -2.59,-0.58 -2.48,-0.88 -2.38,-1.19 -2.38,-1.19 L -2.38,-1.19 Z"></path></g><g transform="translate(384 213) rotate(0 7.25 1.5)" stroke="none"><path fill="#1e1e1e" d="M 0.64,-2.56 Q 0.64,-2.56 2.36,-2.14 4.09,-1.73 6.54,-1.13 8.98,-0.54 11.77,-0.08 14.55,0.37 14.97,0.45 15.39,0.52 15.76,0.73 16.13,0.94 16.42,1.25 16.70,1.57 16.87,1.96 17.04,2.35 17.08,2.77 17.11,3.20 17.01,3.61 16.91,4.02 16.69,4.38 16.46,4.74 16.13,5.01 15.80,5.28 15.40,5.42 15.00,5.57 14.58,5.59 14.15,5.60 13.75,5.48 13.34,5.35 12.99,5.11 12.65,4.86 12.40,4.52 12.15,4.17 12.02,3.77 11.89,3.36 11.90,2.94 11.91,2.51 12.06,2.11 12.20,1.71 12.47,1.38 12.73,1.05 13.09,0.82 13.45,0.59 13.86,0.48 14.27,0.38 14.69,0.41 15.12,0.44 15.51,0.61 15.90,0.78 16.22,1.06 16.53,1.34 16.75,1.71 16.96,2.08 17.04,2.49 17.12,2.91 17.06,3.33 17.01,3.75 16.82,4.14 16.64,4.52 16.34,4.82 16.04,5.12 15.66,5.31 15.28,5.50 14.86,5.56 14.44,5.62 14.44,5.62 14.44,5.62 11.05,5.16 7.67,4.70 5.23,4.08 2.80,3.45 1.08,3.00 -0.64,2.56 -0.93,2.44 -1.23,2.33 -1.49,2.15 -1.75,1.97 -1.96,1.73 -2.17,1.49 -2.32,1.21 -2.47,0.92 -2.54,0.61 -2.62,0.30 -2.62,-0.00 -2.62,-0.32 -2.54,-0.63 -2.46,-0.94 -2.31,-1.22 -2.16,-1.50 -1.95,-1.74 -1.74,-1.98 -1.48,-2.16 -1.21,-2.34 -0.92,-2.45 -0.62,-2.56 -0.30,-2.60 0.00,-2.64 0.32,-2.60 0.64,-2.56 0.64,-2.56 L 0.64,-2.56 Z"></path></g><g transform="translate(271.5 257.5) rotate(0 5.5 5.5)" stroke="none"><path fill="#1e1e1e" d="M -2.62,0.23 Q -2.62,0.23 -2.90,-1.32 -3.17,-2.88 -0.69,-3.48 1.77,-4.08 3.26,-0.25 4.76,3.56 6.06,5.59 7.36,7.62 9.18,9.53 10.99,11.44 12.43,13.05 13.88,14.67 14.12,15.01 14.37,15.36 14.48,15.77 14.60,16.18 14.58,16.60 14.57,17.03 14.41,17.43 14.26,17.82 13.99,18.15 13.72,18.48 13.36,18.70 13.00,18.92 12.58,19.02 12.17,19.12 11.75,19.08 11.32,19.03 10.94,18.86 10.55,18.69 10.24,18.40 9.92,18.11 9.72,17.74 9.52,17.36 9.44,16.95 9.37,16.53 9.43,16.11 9.50,15.69 9.69,15.31 9.88,14.93 10.19,14.63 10.49,14.34 10.88,14.16 11.26,13.97 11.68,13.92 12.11,13.87 12.52,13.96 12.94,14.04 13.30,14.26 13.67,14.47 13.95,14.79 14.23,15.11 14.39,15.51 14.55,15.90 14.58,16.32 14.61,16.75 14.50,17.16 14.39,17.57 14.16,17.92 13.92,18.28 13.59,18.54 13.25,18.80 12.85,18.94 12.45,19.08 12.03,19.09 11.60,19.09 11.20,18.96 10.79,18.83 10.45,18.58 10.11,18.32 10.11,18.32 10.11,18.32 8.54,16.83 6.98,15.34 4.71,13.05 2.45,10.76 0.93,8.32 -0.58,5.88 -1.60,3.52 -2.61,1.15 -3.22,-1.15 -3.83,-3.47 -1.91,-5.15 0.00,-6.84 1.30,-5.14 2.59,-3.43 2.61,-1.83 2.62,-0.23 2.61,0.07 2.60,0.39 2.52,0.70 2.43,1.00 2.28,1.28 2.12,1.56 1.90,1.79 1.68,2.02 1.42,2.20 1.15,2.37 0.85,2.47 0.55,2.58 0.23,2.60 -0.07,2.63 -0.39,2.59 -0.70,2.54 -1.00,2.42 -1.29,2.29 -1.55,2.11 -1.80,1.92 -2.01,1.67 -2.21,1.43 -2.35,1.14 -2.49,0.86 -2.56,0.54 -2.62,0.23 -2.62,0.23 L -2.62,0.23 Z"></path></g><g transform="translate(309.5 299.5) rotate(0 -13.75 -1.75)" stroke="none"><path fill="#1e1e1e" d="M -0.90,2.49 Q -0.90,2.49 -2.55,2.09 -4.19,1.70 -6.82,1.15 -9.44,0.60 -12.98,0.29 -16.53,-0.01 -20.18,-0.22 -23.84,-0.42 -25.69,-0.65 -27.53,-0.87 -27.95,-0.94 -28.37,-1.02 -28.74,-1.22 -29.11,-1.43 -29.40,-1.74 -29.69,-2.05 -29.86,-2.44 -30.04,-2.83 -30.08,-3.25 -30.12,-3.67 -30.02,-4.09 -29.92,-4.50 -29.70,-4.86 -29.47,-5.22 -29.14,-5.49 -28.82,-5.76 -28.42,-5.92 -28.02,-6.07 -27.60,-6.08 -27.17,-6.10 -26.77,-5.98 -26.36,-5.86 -26.01,-5.62 -25.66,-5.38 -25.41,-5.03 -25.16,-4.69 -25.03,-4.29 -24.90,-3.88 -24.90,-3.46 -24.91,-3.03 -25.05,-2.63 -25.19,-2.23 -25.45,-1.90 -25.72,-1.56 -26.07,-1.33 -26.43,-1.10 -26.84,-0.99 -27.25,-0.88 -27.67,-0.91 -28.10,-0.94 -28.49,-1.10 -28.88,-1.26 -29.20,-1.54 -29.52,-1.82 -29.74,-2.19 -29.95,-2.56 -30.03,-2.97 -30.12,-3.39 -30.07,-3.81 -30.02,-4.23 -29.83,-4.62 -29.65,-5.00 -29.35,-5.30 -29.05,-5.61 -28.68,-5.80 -28.30,-6.00 -27.88,-6.06 -27.46,-6.12 -27.46,-6.12 -27.46,-6.12 -25.59,-6.29 -23.72,-6.46 -19.79,-6.43 -15.86,-6.39 -12.10,-6.04 -8.34,-5.69 -5.23,-4.84 -2.12,-4.00 -0.60,-3.24 0.90,-2.49 1.19,-2.34 1.47,-2.20 1.71,-1.99 1.96,-1.78 2.14,-1.52 2.33,-1.26 2.44,-0.96 2.56,-0.67 2.61,-0.35 2.65,-0.03 2.61,0.28 2.58,0.59 2.47,0.90 2.36,1.20 2.18,1.46 2.00,1.73 1.77,1.94 1.53,2.16 1.25,2.31 0.97,2.46 0.66,2.54 0.35,2.62 0.03,2.63 -0.28,2.63 -0.59,2.56 -0.90,2.49 -0.90,2.49 L -0.90,2.49 Z"></path></g><g transform="translate(21 405) rotate(0 190.25 -25.25)" stroke="none"><path fill="#1e1e1e" d="M -1.61,-5.06 Q -1.61,-5.06 1.44,-6.37 4.49,-7.68 8.77,-12.49 13.05,-17.30 17.69,-21.00 22.34,-24.70 29.25,-28.53 36.16,-32.36 43.56,-35.61 50.96,-38.86 55.18,-40.30 59.40,-41.75 63.98,-43.09 68.56,-44.43 74.65,-46.15 80.75,-47.86 86.08,-49.31 91.41,-50.76 98.19,-52.14 104.97,-53.52 110.72,-54.54 116.47,-55.55 121.89,-56.28 127.30,-57.02 132.17,-57.61 137.05,-58.21 141.81,-58.61 146.57,-59.02 151.14,-59.19 155.72,-59.37 161.12,-59.45 166.53,-59.52 171.12,-59.55 175.70,-59.58 185.09,-59.10 194.48,-58.62 198.89,-58.18 203.30,-57.73 211.22,-56.76 219.14,-55.80 226.64,-54.64 234.15,-53.48 238.94,-52.79 243.73,-52.10 247.92,-51.35 252.12,-50.60 260.49,-49.19 268.85,-47.77 276.05,-46.35 283.25,-44.93 289.85,-43.29 296.45,-41.65 302.88,-39.56 309.32,-37.47 315.56,-35.37 321.81,-33.27 327.75,-31.20 333.68,-29.13 338.67,-27.35 343.66,-25.57 347.71,-23.92 351.76,-22.27 355.83,-20.26 359.89,-18.25 363.87,-16.28 367.85,-14.31 372.09,-11.58 376.33,-8.86 380.27,-5.89 384.21,-2.91 384.54,-2.77 384.88,-2.62 385.40,-1.97 385.92,-1.33 386.28,-0.58 386.63,0.16 386.79,0.97 386.96,1.78 386.92,2.61 386.89,3.44 386.66,4.23 386.42,5.03 386.01,5.75 385.59,6.46 385.02,7.06 384.44,7.66 383.74,8.10 383.04,8.54 382.25,8.80 381.46,9.06 380.64,9.13 379.81,9.19 378.99,9.06 378.18,8.92 377.41,8.60 376.65,8.27 375.99,7.77 375.33,7.27 373.26,2.61 371.20,-2.03 369.90,-7.97 368.60,-13.90 368.59,-18.31 368.58,-22.72 368.99,-23.98 369.39,-25.24 369.33,-26.09 369.26,-26.93 369.47,-27.76 369.67,-28.58 370.13,-29.30 370.59,-30.01 371.26,-30.54 371.92,-31.07 372.72,-31.37 373.52,-31.66 374.37,-31.68 375.22,-31.70 376.03,-31.45 376.84,-31.20 377.53,-30.70 378.22,-30.20 378.71,-29.51 379.21,-28.82 379.45,-28.00 379.70,-27.19 379.68,-26.34 379.65,-25.49 379.36,-24.70 379.06,-23.90 378.53,-23.24 377.99,-22.58 377.28,-22.12 376.56,-21.66 375.73,-21.46 374.91,-21.26 374.06,-21.33 373.21,-21.40 372.43,-21.74 371.65,-22.08 371.02,-22.64 370.39,-23.21 369.98,-23.95 369.56,-24.70 369.40,-25.53 369.24,-26.37 369.36,-27.21 369.48,-28.05 369.86,-28.81 370.24,-29.57 370.84,-30.17 371.44,-30.77 372.20,-31.15 372.97,-31.52 373.81,-31.63 374.65,-31.75 375.48,-31.58 376.32,-31.42 377.06,-31.00 377.80,-30.58 378.36,-29.95 378.93,-29.31 379.26,-28.53 379.60,-27.75 379.60,-27.75 379.60,-27.75 380.74,-26.03 381.88,-24.31 382.52,-19.03 383.17,-13.76 384.02,-8.19 384.88,-2.62 385.40,-1.98 385.92,-1.33 386.28,-0.58 386.63,0.16 386.79,0.97 386.96,1.78 386.92,2.61 386.89,3.44 386.66,4.23 386.42,5.03 386.01,5.75 385.59,6.46 385.02,7.06 384.44,7.66 383.74,8.10 383.04,8.54 382.25,8.80 381.47,9.06 380.64,9.13 379.81,9.19 378.99,9.06 378.18,8.92 377.41,8.60 376.65,8.27 375.99,7.77 375.33,7.27 374.58,6.88 373.83,6.49 370.20,3.49 366.57,0.50 362.42,-1.80 358.27,-4.12 354.35,-6.12 350.43,-8.12 344.72,-10.64 339.02,-13.15 334.20,-14.87 329.38,-16.59 323.42,-18.66 317.47,-20.74 311.38,-22.79 305.29,-24.83 299.01,-26.88 292.73,-28.92 286.78,-30.40 280.83,-31.89 273.67,-33.28 266.50,-34.67 261.95,-35.49 257.40,-36.31 249.62,-37.64 241.83,-38.97 233.27,-40.31 224.71,-41.65 217.27,-42.63 209.83,-43.61 201.70,-44.50 193.58,-45.39 184.69,-45.85 175.79,-46.32 171.25,-46.29 166.71,-46.26 161.46,-46.19 156.22,-46.12 151.96,-45.97 147.69,-45.81 143.17,-45.42 138.65,-45.04 133.86,-44.46 129.07,-43.87 123.92,-43.18 118.77,-42.49 113.19,-41.51 107.60,-40.53 101.25,-39.25 94.89,-37.96 89.61,-36.53 84.34,-35.09 78.31,-33.40 72.29,-31.71 64.15,-29.15 56.00,-26.59 49.21,-23.60 42.42,-20.62 36.10,-17.14 29.78,-13.66 26.27,-10.91 22.76,-8.17 19.79,-4.87 16.82,-1.57 12.49,1.03 8.15,3.65 4.88,4.36 1.61,5.06 0.98,5.18 0.35,5.30 -0.28,5.26 -0.92,5.23 -1.53,5.04 -2.15,4.86 -2.70,4.53 -3.25,4.20 -3.70,3.75 -4.16,3.30 -4.49,2.75 -4.83,2.21 -5.02,1.59 -5.22,0.98 -5.26,0.34 -5.30,-0.28 -5.19,-0.92 -5.08,-1.55 -4.82,-2.13 -4.56,-2.72 -4.17,-3.23 -3.78,-3.73 -3.27,-4.13 -2.77,-4.53 -2.19,-4.79 -1.61,-5.06 -1.61,-5.06 L -1.61,-5.06 Z"></path></g><g transform="translate(393 406) rotate(0 -15 -1.75)" stroke="none"><path fill="#1e1e1e" d="M -0.98,5.30 Q -0.98,5.30 -4.93,4.98 -8.89,4.66 -14.63,4.11 -20.38,3.57 -25.06,2.90 -29.75,2.24 -30.59,2.14 -31.44,2.05 -32.21,1.68 -32.97,1.32 -33.59,0.73 -34.20,0.14 -34.59,-0.60 -34.99,-1.35 -35.12,-2.19 -35.25,-3.03 -35.10,-3.87 -34.96,-4.71 -34.56,-5.46 -34.15,-6.20 -33.53,-6.78 -32.91,-7.36 -32.14,-7.72 -31.36,-8.07 -30.52,-8.15 -29.67,-8.24 -28.84,-8.05 -28.01,-7.86 -27.29,-7.42 -26.56,-6.97 -26.02,-6.32 -25.47,-5.67 -25.17,-4.88 -24.86,-4.09 -24.82,-3.24 -24.78,-2.39 -25.01,-1.57 -25.24,-0.75 -25.73,-0.05 -26.21,0.64 -26.89,1.15 -27.57,1.65 -28.38,1.92 -29.18,2.19 -30.03,2.18 -30.88,2.17 -31.69,1.90 -32.49,1.62 -33.16,1.10 -33.84,0.58 -34.31,-0.12 -34.78,-0.82 -35.00,-1.65 -35.22,-2.47 -35.17,-3.31 -35.12,-4.16 -34.80,-4.95 -34.48,-5.74 -33.92,-6.38 -33.37,-7.02 -32.63,-7.46 -31.90,-7.89 -31.07,-8.07 -30.24,-8.24 -30.24,-8.24 -30.24,-8.24 -24.48,-8.91 -18.73,-9.58 -12.68,-8.56 -6.63,-7.54 -2.82,-6.42 0.98,-5.30 1.60,-5.11 2.22,-4.91 2.78,-4.58 3.33,-4.24 3.79,-3.78 4.25,-3.32 4.59,-2.76 4.92,-2.20 5.12,-1.58 5.31,-0.96 5.35,-0.31 5.38,0.33 5.27,0.97 5.15,1.61 4.88,2.20 4.61,2.80 4.21,3.31 3.81,3.82 3.29,4.22 2.78,4.62 2.19,4.89 1.59,5.15 0.95,5.27 0.31,5.39 -0.33,5.34 -0.98,5.30 -0.98,5.30 L -0.98,5.30 Z"></path></g></svg>